nColumns=19
nRows=91
DataType=double
version=3
OpenSimVersion=4.1
endheader
time	ground_force_1_vx	ground_force_1_vy	ground_force_1_vz	ground_force_1_px	ground_force_1_py	ground_force_1_pz	ground_force_1_mx	ground_force_1_my	ground_force_1_mz	ground_force_2_vx	ground_force_2_vy	ground_force_2_vz	ground_force_2_px	ground_force_2_py	ground_force_2_pz	ground_force_2_mx	ground_force_2_my	ground_force_2_mz
0.11	0	0	0	-0.000881103	0	-0.000106502	0	0	0	-32.4269	137.996	20.554	0.9253	0	-0.37203	-0	6.19937	-0
0.12	0	0	0	-0.000881105	0	-0.000106502	0	0	0	-147.833	535.741	50.8959	0.927906	0	-0.381583	0	-2.4044	0
0.13	0	0	0	-0.000881109	0	-0.000106503	0	0	0	-207.925	998.389	78.1028	0.91088	0	-0.371424	0	-8.25943	0
0.14	0	0	0	-0.000881117	0	-0.000106503	0	0	0	-214.273	1417.49	73.2555	0.878256	0	-0.363207	0	-10.4454	0
0.15	0	0	0	-0.000881127	0	-0.000106504	0	0	0	-221.955	1709.71	30.5665	0.840874	0	-0.361609	0	-9.55261	0
0.16	0	0	0	-0.00088114	0	-0.000106506	0	0	0	-237.259	1898.48	-11.14	0.805118	0	-0.362482	0	-7.37624	0
0.17	0	0	0	-0.000881157	0	-0.000106507	0	0	0	-224.467	2067.15	-16.011	0.770083	0	-0.361132	0	-5.77666	0
0.18	0	0	0	-0.000881176	0	-0.000106509	0	0	0	-157.882	2213.4	3.89809	0.73337	0	-0.359758	0	-5.59625	0
0.19	0	0	0	-0.000881198	0	-0.000106511	0	0	0	-63.5052	2274.52	17.2839	0.695427	0	-0.361312	0	-6.44869	0
0.2	0	0	0	-0.000881223	0	-0.000106513	0	0	0	24.4177	2228.74	18.4112	0.65754	0	-0.363668	0	-7.27564	0
0.21	0	0	0	-0.000881251	0	-0.000106516	0	0	0	105.073	2087.16	16.8747	0.619336	0	-0.363705	0	-7.04562	0
0.22	0	0	0	-0.000881282	0	-0.000106518	0	0	0	188.796	1847.29	9.48235	0.577803	0	-0.362175	0	-5.25483	0
0.23	0	0	0	-0.000881316	0	-0.000106522	0	0	0	267.453	1515.39	-9.84936	0.530892	0	-0.361829	0	-2.18104	0
0.24	0	0	0	-0.000881353	0	-0.000106525	0	0	0	301.941	1133.94	-30.0069	0.482656	0	-0.363479	-0	1.22765	-0
0.25	0	0	0	-0.000881392	0	-0.000106528	0	0	0	272.792	762.563	-35.0391	0.440104	0	-0.364802	-0	3.87147	-0
0.26	0	0	0	-0.000881435	0	-0.000106532	0	0	0	200.593	454.766	-26.0603	0.415449	0	-0.36242	-0	5.09355	-0
0.27	0	0	0	-0.00088148	0	-0.000106536	0	0	0	116.27	229.764	-15.9038	0.405403	0	-0.360658	-0	4.90722	-0
0.28	0	0	0	-0.000881529	0	-0.000106541	0	0	0	51.3705	88.5203	-10.5846	0.359096	0	-0.371975	-0	3.79114	-0
0.29	0	0	0	-0.00088158	0	-0.000106546	0	0	0	15.7091	26.8767	-6.73692	0.330022	0	-0.382451	-0	2.34684	-0
0.3	0	0	0	-0.000881634	0	-0.00010655	0	0	0	1.69811	12.1859	-1.83376	0.775422	0	-0.25378	-0	1.06175	-0
0.31	0	0	0	-0.000881691	0	-0.000106556	0	0	0	0	0	0	-0.00088168	0	-0.000106555	0	0	0
0.32	0	0	0	-0.000881751	0	-0.000106561	0	0	0	0	0	0	-0.000881738	0	-0.00010656	0	0	0
0.33	0	0	0	-0.000881814	0	-0.000106567	0	0	0	0	0	0	-0.0008818	0	-0.000106566	0	0	0
0.34	0	0	0	-0.00088188	0	-0.000106573	0	0	0	0	0	0	-0.000881864	0	-0.000106572	0	0	0
0.35	0	0	0	-0.000881948	0	-0.000106579	0	0	0	0	0	0	-0.000881931	0	-0.000106578	0	0	0
0.36	0	0	0	-0.000882019	0	-0.000106585	0	0	0	0	0	0	-0.000882001	0	-0.000106585	0	0	0
0.37	0	0	0	-0.000882093	0	-0.000106592	0	0	0	0	0	0	-0.000882074	0	-0.000106591	0	0	0
0.38	0	0	0	-0.00088217	0	-0.000106599	0	0	0	0	0	0	-0.000882149	0	-0.000106598	0	0	0
0.39	-13.6966	27.356	-8.27218	0.956746	0	-0.224671	-0	0.322921	-0	0	0	0	-0.000882227	0	-0.000106605	0	0	0
0.4	-51.4105	110.739	-18.8659	0.970291	0	-0.24747	-0	1.81824	-0	0	0	0	-0.000882308	0	-0.000106613	0	0	0
0.41	-133.617	334.131	-33.8197	0.980359	0	-0.253292	-0	3.24432	-0	0	0	0	-0.000882391	0	-0.00010662	0	0	0
0.42	-229.324	716.544	-46.847	0.972787	0	-0.258784	-0	3.98198	-0	0	0	0	-0.000882477	0	-0.000106628	0	0	0
0.43	-273.731	1160.2	-47.3279	0.942787	0	-0.265931	-0	3.63514	-0	0	0	0	-0.000882566	0	-0.000106636	0	0	0
0.44	-286.068	1552.66	-29.0458	0.903644	0	-0.272505	-0	2.3585	-0	0	0	0	-0.000882658	0	-0.000106645	0	0	0
0.45	-309.072	1830.26	-1.46403	0.867777	0	-0.276789	-0	0.898293	-0	0	0	0	-0.000882752	0	-0.000106653	0	0	0
0.46	-307.942	2014.45	14.5893	0.832342	0	-0.279613	-0	0.223216	-0	0	0	0	-0.000882849	0	-0.000106662	0	0	0
0.47	-251.09	2156.75	9.78173	0.793711	0	-0.281211	-0	0.956036	-0	0	0	0	-0.000882948	0	-0.000106671	0	0	0
0.48	-164.118	2257.88	-5.23377	0.755096	0	-0.28073	-0	3.02748	-0	0	0	0	-0.00088305	0	-0.000106681	0	0	0
0.49	-81.0773	2284.77	-18.723	0.71824	0	-0.278935	-0	5.76833	-0	0	0	0	-0.000883155	0	-0.00010669	0	0	0
0.5	-0.601363	2219.4	-28.7319	0.680604	0	-0.277445	-0	8.27705	-0	0	0	0	-0.000883262	0	-0.0001067	0	0	0
0.51	86.3011	2064.05	-33.12	0.640048	0	-0.276677	-0	9.80163	-0	0	0	0	-0.000883372	0	-0.00010671	0	0	0
0.52	179.745	1827.7	-27.692	0.596008	0	-0.275919	-0	10.0023	-0	0	0	0	-0.000883484	0	-0.00010672	0	0	0
0.53	262.328	1526.06	-16.2799	0.550984	0	-0.274813	-0	9.01797	-0	0	0	0	-0.000883599	0	-0.000106731	0	0	0
0.54	296.49	1182.08	-8.01958	0.508409	0	-0.273802	-0	7.30049	-0	0	0	0	-0.000883716	0	-0.000106742	0	0	0
0.55	273.325	824.37	-5.4392	0.465426	0	-0.273046	-0	5.33826	-0	0	0	0	-0.000883836	0	-0.000106753	0	0	0
0.56	210.936	501.352	-4.3712	0.419683	0	-0.271349	-0	3.47727	-0	0	0	0	-0.000883958	0	-0.000106764	0	0	0
0.57	129.035	261.387	-1.87894	0.391547	0	-0.266574	-0	1.91054	-0	0	0	0	-0.000884083	0	-0.000106775	0	0	0
0.58	55.6532	113.965	1.19816	0.422091	0	-0.255601	-0	0.737708	-0	0	0	0	-0.00088421	0	-0.000106787	0	0	0
0.59	14.2897	39.3593	2.78949	0.546833	0	-0.229465	0	-0.010274	0	0	0	0	-0.000884339	0	-0.000106799	0	0	0
0.6	1.17922	12.1265	2.4044	0.867999	0	-0.177692	0	-0.385301	0	0	0	0	-0.000884471	0	-0.000106811	0	0	0
0.61	0	0	0	-0.000884677	0	-0.000106827	0	0	0	0	0	0	-0.000884606	0	-0.000106823	0	0	0
0.62	0	0	0	-0.000884817	0	-0.00010684	0	0	0	0	0	0	-0.000884742	0	-0.000106836	0	0	0
0.63	0	0	0	-0.000884959	0	-0.000106852	0	0	0	0	0	0	-0.000884881	0	-0.000106849	0	0	0
0.64	0	0	0	-0.000885103	0	-0.000106866	0	0	0	0	0	0	-0.000885022	0	-0.000106862	0	0	0
0.65	0	0	0	-0.000885249	0	-0.000106879	0	0	0	0	0	0	-0.000885166	0	-0.000106875	0	0	0
0.66	0	0	0	-0.000885398	0	-0.000106892	0	0	0	0	0	0	-0.000885312	0	-0.000106888	0	0	0
0.67	0	0	0	-0.000885549	0	-0.000106906	0	0	0	0	0	0	-0.00088546	0	-0.000106902	0	0	0
0.68	0	0	0	-0.000885702	0	-0.00010692	0	0	0	0	0	0	-0.00088561	0	-0.000106915	0	0	0
0.69	0	0	0	-0.000885858	0	-0.000106934	0	0	0	0	0	0	-0.000885762	0	-0.000106929	0	0	0
0.7	0	0	0	-0.000886016	0	-0.000106948	0	0	0	0	0	0	-0.000885917	0	-0.000106944	0	0	0
0.71	0	0	0	-0.000886175	0	-0.000106963	0	0	0	-13.4771	25.5608	-3.19935	1.02036	0	-0.423989	-0	6.18669	-0
0.72	0	0	0	-0.000886337	0	-0.000106978	0	0	0	-48.019	104.099	0.544455	0.931179	0	-0.451592	-0	4.99152	-0
0.73	0	0	0	-0.000886502	0	-0.000106993	0	0	0	-126.646	319.242	18.3524	0.927301	0	-0.444492	-0	2.2521	-0
0.74	0	0	0	-0.000886668	0	-0.000107008	0	0	0	-213.19	684.68	54.4527	0.92286	0	-0.431499	0	-1.30578	0
0.75	0	0	0	-0.000886836	0	-0.000107023	0	0	0	-240.704	1103.97	91.3355	0.898495	0	-0.419276	0	-4.50802	0
0.76	0	0	0	-0.000887007	0	-0.000107038	0	0	0	-230.578	1480.7	99.4699	0.859486	0	-0.412091	0	-6.41325	0
0.77	0	0	0	-0.000887179	0	-0.000107054	0	0	0	-229.699	1756.47	77.2993	0.819426	0	-0.410194	0	-6.94245	0
0.78	0	0	0	-0.000887354	0	-0.00010707	0	0	0	-229.429	1944.96	57.6262	0.782347	0	-0.409384	0	-6.84535	0
0.79	0	0	0	-0.00088753	0	-0.000107086	0	0	0	-201.645	2089.62	63.28	0.745331	0	-0.40778	0	-6.99743	0
0.8	0	0	0	-0.000887708	0	-0.000107102	0	0	0	-129.588	2185.02	81.807	0.705661	0	-0.407338	0	-7.70803	0
0.81	0	0	0	-0.000887889	0	-0.000107119	0	0	0	-27.0859	2202.38	92.1908	0.663114	0	-0.409022	0	-8.59686	0
0.82	0	0	0	-0.000888071	0	-0.000107135	0	0	0	84.665	2133.67	92.1494	0.618757	0	-0.410566	0	-8.93579	0
0.83	0	0	0	-0.000888255	0	-0.000107152	0	0	0	190.81	1978.93	87.5388	0.57419	0	-0.41016	0	-8.06289	0
0.84	0	0	0	-0.00088844	0	-0.000107169	0	0	0	277.873	1739.65	75.6159	0.530508	0	-0.408513	0	-5.69356	0
0.85	0	0	0	-0.000888628	0	-0.000107186	0	0	0	326.53	1425.45	52.7984	0.488028	0	-0.407618	0	-2.10754	0
0.86	0	0	0	-0.000888817	0	-0.000107203	0	0	0	324.75	1065.53	26.0269	0.446397	0	-0.40815	-0	1.88864	-0
0.87	0	0	0	-0.000889009	0	-0.00010722	0	0	0	276.613	711.685	5.49024	0.405249	0	-0.408808	-0	5.28344	-0
0.88	0	0	0	-0.000889201	0	-0.000107238	0	0	0	197.948	418.121	-6.46256	0.36892	0	-0.408863	-0	7.29282	-0
0.89	0	0	0	-0.000889396	0	-0.000107255	0	0	0	114.26	212.002	-12.5416	0.34897	0	-0.410847	-0	7.63489	-0
0.9	0	0	0	-0.000889592	0	-0.000107273	0	0	0	52.9528	89.9849	-13.4548	0.346545	0	-0.416491	-0	6.54323	-0
0.91	0	0	0	-0.00088979	0	-0.000107291	0	0	0	19.4215	33.5529	-9.35315	0.398433	0	-0.400124	-0	4.59414	-0
0.92	0	0	0	-0.000889989	0	-0.000107309	0	0	0	3.98028	14.5672	-3.61437	0.701817	0	-0.291262	-0	2.45456	-0
0.93	0	0	0	-0.00089019	0	-0.000107328	0	0	0	0	0	0	-0.000890007	0	-0.000107319	0	0	0
0.94	0	0	0	-0.000890392	0	-0.000107346	0	0	0	0	0	0	-0.000890206	0	-0.000107337	0	0	0
0.95	0	0	0	-0.000890596	0	-0.000107365	0	0	0	0	0	0	-0.000890406	0	-0.000107355	0	0	0
0.96	0	0	0	-0.000890802	0	-0.000107383	0	0	0	0	0	0	-0.000890607	0	-0.000107373	0	0	0
0.97	0	0	0	-0.000891008	0	-0.000107402	0	0	0	0	0	0	-0.000890809	0	-0.000107392	0	0	0
0.98	0	0	0	-0.000891217	0	-0.000107421	0	0	0	0	0	0	-0.000891013	0	-0.000107411	0	0	0
0.99	0	0	0	-0.000891426	0	-0.00010744	0	0	0	0	0	0	-0.000891219	0	-0.00010743	0	0	0
1	-12.3202	28.0311	-9.74972	0.846528	0	-0.212771	-0	0.103571	-0	0	0	0	-0.000891425	0	-0.000107449	0	0	0
1.01	-43.4265	110.445	-23.3244	0.90344	0	-0.228912	-0	1.56265	-0	0	0	0	-0.000891633	0	-0.000107468	0	0	0
